{
    "asset" : {
        "generator" : "Khronos glTF Blender I/O v1.1.46",
        "version" : "2.0"
    },
    "scene" : 0,
    "scenes" : [
        {
            "name" : "Scene",
            "nodes" : [
                13
            ]
        }
    ],
    "nodes" : [
        {
            "name" : "LeftHand3",
            "rotation" : [
                3.7875587111102504e-09,
                4.560200395076208e-08,
                -0.0038256109692156315,
                0.9999926686286926
            ],
            "scale" : [
                0.9999999403953552,
                0.9999999403953552,
                1
            ],
            "translation" : [
                -2.3835215756662365e-07,
                0.20520484447479248,
                2.623039563331986e-09
            ]
        },
        {
            "children" : [
                0
            ],
            "name" : "LeftHand2",
            "rotation" : [
                -5.5946398624939775e-09,
                -1.0528091287653751e-08,
                0.005858391523361206,
                0.9999828338623047
            ],
            "scale" : [
                0.9999999403953552,
                1,
                1
            ],
            "translation" : [
                1.4426291272684466e-09,
                0.2714487314224243,
                -8.759570846450515e-11
            ]
        },
        {
            "children" : [
                1
            ],
            "name" : "LeftHand1",
            "rotation" : [
                -5.226976185213061e-09,
                1.7213362468737614e-07,
                0.006588317919522524,
                0.9999783039093018
            ],
            "scale" : [
                0.9999999403953552,
                0.9999998807907104,
                0.9999999403953552
            ],
            "translation" : [
                4.5600171461046557e-07,
                1.8070813417434692,
                -2.3478605726268142e-09
            ]
        },
        {
            "name" : "LeftThumb",
            "rotation" : [
                0.0940743088722229,
                -0.0049622138030827045,
                0.026307595893740654,
                0.9952052235603333
            ],
            "scale" : [
                0.9999998211860657,
                0.9999998807907104,
                0.9999999403953552
            ],
            "translation" : [
                -0.0180776696652174,
                1.9633545875549316,
                0.2603861689567566
            ]
        },
        {
            "children" : [
                2,
                3
            ],
            "name" : "LeftArmBottom",
            "rotation" : [
                0.3339858949184418,
                -0.4699133038520813,
                -0.07048943638801575,
                0.8140431046485901
            ],
            "scale" : [
                0.9999999403953552,
                0.9999999403953552,
                1
            ],
            "translation" : [
                9.19672658028503e-08,
                1.5221107006072998,
                6.522284934362688e-09
            ]
        },
        {
            "children" : [
                4
            ],
            "name" : "LeftArmUp",
            "rotation" : [
                0.5010107159614563,
                -0.3914651572704315,
                -0.6022455096244812,
                0.4827459752559662
            ],
            "scale" : [
                1,
                0.9999999403953552,
                1
            ],
            "translation" : [
                1.2312692403793335,
                6.475548267364502,
                -0.0647524744272232
            ]
        },
        {
            "name" : "RightHand3",
            "rotation" : [
                -3.3731393234148754e-09,
                -2.805768133384845e-07,
                0.003825617954134941,
                0.9999926686286926
            ],
            "translation" : [
                1.347804072793224e-07,
                0.20520532131195068,
                -1.0421103979751933e-09
            ]
        },
        {
            "children" : [
                6
            ],
            "name" : "RightHand2",
            "rotation" : [
                5.346546760875981e-09,
                2.496689148756559e-07,
                -0.005858387798070908,
                0.9999828338623047
            ],
            "scale" : [
                1,
                1.0000001192092896,
                1
            ],
            "translation" : [
                4.284108001684217e-08,
                0.2714489698410034,
                8.703295861778315e-10
            ]
        },
        {
            "children" : [
                7
            ],
            "name" : "RightHand1",
            "rotation" : [
                1.0177495290975003e-08,
                -8.817999059829162e-07,
                -0.00658832723274827,
                0.9999783039093018
            ],
            "scale" : [
                0.9999999403953552,
                0.9999998807907104,
                1
            ],
            "translation" : [
                2.16644806982913e-07,
                1.8070812225341797,
                2.427213985356502e-10
            ]
        },
        {
            "name" : "RightThumb",
            "rotation" : [
                0.045298684388399124,
                -0.0021834217477589846,
                0.0038996373768895864,
                0.9989635944366455
            ],
            "scale" : [
                1,
                0.9999999403953552,
                1
            ],
            "translation" : [
                0.014513036236166954,
                2.014834403991699,
                0.2774038016796112
            ]
        },
        {
            "children" : [
                8,
                9
            ],
            "name" : "RightArmBottom",
            "rotation" : [
                0.37979739904403687,
                0.5697411894798279,
                0.2613062560558319,
                0.6803439855575562
            ],
            "scale" : [
                0.9999999403953552,
                1,
                1
            ],
            "translation" : [
                4.205730874673463e-09,
                1.522110104560852,
                -7.418066161335446e-09
            ]
        },
        {
            "children" : [
                10
            ],
            "name" : "RightArmUp",
            "rotation" : [
                0.3943686783313751,
                0.3313172161579132,
                0.6562843918800354,
                0.5513556599617004
            ],
            "scale" : [
                1,
                1,
                0.9999999403953552
            ],
            "translation" : [
                -1.2027868032455444,
                6.475548267364502,
                -0.0647524744272232
            ]
        },
        {
            "mesh" : 0,
            "name" : "Cube",
            "skin" : 0
        },
        {
            "children" : [
                12,
                5,
                11
            ],
            "name" : "Armature"
        }
    ],
    "materials" : [
        {
            "doubleSided" : true,
            "emissiveFactor" : [
                0,
                0,
                0
            ],
            "name" : "Material",
            "pbrMetallicRoughness" : {
                "baseColorFactor" : [
                    0.800000011920929,
                    0.800000011920929,
                    0.800000011920929,
                    1
                ],
                "metallicFactor" : 0,
                "roughnessFactor" : 0.4000000059604645
            }
        }
    ],
    "meshes" : [
        {
            "name" : "Cube",
            "primitives" : [
                {
                    "attributes" : {
                        "POSITION" : 0,
                        "NORMAL" : 1,
                        "TEXCOORD_0" : 2,
                        "JOINTS_0" : 3,
                        "WEIGHTS_0" : 4
                    },
                    "indices" : 5,
                    "material" : 0
                }
            ]
        }
    ],
    "skins" : [
        {
            "inverseBindMatrices" : 6,
            "joints" : [
                5,
                4,
                2,
                1,
                0,
                3,
                11,
                10,
                8,
                7,
                6,
                9
            ],
            "name" : "Armature"
        }
    ],
    "accessors" : [
        {
            "bufferView" : 0,
            "componentType" : 5126,
            "count" : 368,
            "max" : [
                5.148792266845703,
                6.76890754699707,
                0.34259775280952454
            ],
            "min" : [
                -5.148791313171387,
                5.832001686096191,
                -0.3956299126148224
            ],
            "type" : "VEC3"
        },
        {
            "bufferView" : 1,
            "componentType" : 5126,
            "count" : 368,
            "type" : "VEC3"
        },
        {
            "bufferView" : 2,
            "componentType" : 5126,
            "count" : 368,
            "type" : "VEC2"
        },
        {
            "bufferView" : 3,
            "componentType" : 5123,
            "count" : 368,
            "type" : "VEC4"
        },
        {
            "bufferView" : 4,
            "componentType" : 5126,
            "count" : 368,
            "type" : "VEC4"
        },
        {
            "bufferView" : 5,
            "componentType" : 5123,
            "count" : 564,
            "type" : "SCALAR"
        },
        {
            "bufferView" : 6,
            "componentType" : 5126,
            "count" : 12,
            "type" : "MAT4"
        }
    ],
    "bufferViews" : [
        {
            "buffer" : 0,
            "byteLength" : 4416,
            "byteOffset" : 0
        },
        {
            "buffer" : 0,
            "byteLength" : 4416,
            "byteOffset" : 4416
        },
        {
            "buffer" : 0,
            "byteLength" : 2944,
            "byteOffset" : 8832
        },
        {
            "buffer" : 0,
            "byteLength" : 2944,
            "byteOffset" : 11776
        },
        {
            "buffer" : 0,
            "byteLength" : 5888,
            "byteOffset" : 14720
        },
        {
            "buffer" : 0,
            "byteLength" : 1128,
            "byteOffset" : 20608
        },
        {
            "buffer" : 0,
            "byteLength" : 768,
            "byteOffset" : 21736
        }
    ],
    "buffers" : [
        {
            "byteLength" : 22504,
            "uri" : "data:application/octet-stream;base64,"
        }
    ]
}
